# xmcd CD database file
#
# Track frame offsets:
#	183
#	33408
#	53045
#	84833
#	104908
#	136883
#	165720
#	176633
#	187145
#	217445
#
# Disc length: 3140 seconds
#
# Revision: 0
# Processed by: cddbd v1.4PL0 Copyright (c) Steve Scherf et al.
# Submitted via: CDex 1.50beta9
#
DISCID=940c420a
DTITLE=Various Artist - Golden Jazz Best Disk1
DYEAR=1900
DGENRE=Jazz
TTITLE0=Les Liaisons Dangeruses(No Probrem)-Art Blakey's Jazz Messengers
TTITLE1=You'd Be So Nice To Come Home To - Helen Merrill With Cliford Brown
TTITLE2=Waltz For Debby - Bill Evans
TTITLE3=Cleopatra's Dream - Bud Powell
TTITLE4=Django - M.J.Q
TTITLE5=Someday My Prince Will Come - The Dave Bruebeck Quartet
TTITLE6=Lullaby Of Birdland - Chris Conner
TTITLE7=My Funny Valentine - Chet Baker
TTITLE8='Round Midnight - Thelonious Monk
TTITLE9=Autumn In New York - Oscar Peterson
EXTD=
EXTT0=
EXTT1=
EXTT2=
EXTT3=
EXTT4=
EXTT5=
EXTT6=
EXTT7=
EXTT8=
EXTT9=
PLAYORDER=
